<?xml version="1.0" encoding="UTF-8" standalone="no"?>
<svg
   xmlns:dc="http://purl.org/dc/elements/1.1/"
   xmlns:cc="http://creativecommons.org/ns#"
   xmlns:rdf="http://www.w3.org/1999/02/22-rdf-syntax-ns#"
   xmlns:svg="http://www.w3.org/2000/svg"
   xmlns="http://www.w3.org/2000/svg"
   version="1.1"
   id="svg2"
   height="120.164"
   width="120.21">
  <metadata
     id="metadata53">
    <rdf:RDF>
      <cc:Work
         rdf:about="">
        <dc:format>image/svg+xml</dc:format>
        <dc:type
           rdf:resource="http://purl.org/dc/dcmitype/StillImage" />
        <dc:title></dc:title>
      </cc:Work>
    </rdf:RDF>
  </metadata>
  <defs
     id="defs4">
    <marker
       orient="auto"
       markerHeight="3"
       markerWidth="4"
       markerUnits="strokeWidth"
       refY="5"
       refX="0"
       viewBox="0 0 10 10"
       id="ArrowEnd">
      <path
         id="path7"
         d="M 0,0 10,5 0,10 Z" />
    </marker>
    <marker
       orient="auto"
       markerHeight="3"
       markerWidth="4"
       markerUnits="strokeWidth"
       refY="5"
       refX="10"
       viewBox="0 0 10 10"
       id="ArrowStart">
      <path
         id="path10"
         d="M 10,0 0,5 10,10 Z" />
    </marker>
  </defs>
  <g
     transform="translate(-223.004,-552.668)"
     id="g2461">
    <path
       id="path48"
       d="m 269.691,643.382 c 0.414,-0.172 0.816,-0.359 1.203,-0.589 6.363,-3.7 7.028,-14.426 1.485,-23.973 -5.543,-9.539 -15.196,-14.281 -21.559,-10.586 -6.363,3.691 -7.024,14.426 -1.481,23.973 0.817,1.402 1.723,2.699 2.688,3.879 0,0 0,10.257 0,10.257 0,0 -13.473,-7.777 -13.473,-7.777 0,0 0,-49.207 0,-49.207 0,0 -8.472,-4.891 -8.472,-4.891 -4.512,8.434 -7.078,18.067 -7.078,28.305 0,32.559 25.894,59.051 58.207,60.059 0,0 0,-9.645 0,-9.645 0,0 -11.52,-6.648 -11.52,-6.648 0,0 0,-13.157 0,-13.157 z m 66.484,-58.839 c 0,0 -8.511,4.914 -8.511,4.914 0,0 0,15.386 0,15.386 0,0 -9.289,5.266 -9.289,5.266 -0.676,-0.789 -1.469,-1.465 -2.375,-1.992 -6.364,-3.696 -16.016,1.047 -21.559,10.586 -5.543,9.547 -4.879,20.277 1.481,23.976 6.363,3.692 16.015,-1.047 21.558,-10.59 1.199,-2.062 2.106,-4.179 2.727,-6.273 0,0 7.457,-4.316 7.457,-4.316 0,0 0,17.066 0,17.066 0,0 -42.453,24.508 -42.453,24.508 0,0 0,9.75 0,9.75 32.218,-1.106 58.003,-27.563 58.003,-60.051 0,-10.207 -2.554,-19.813 -7.039,-28.23 z m -34.359,1.585 c 0,-7.359 -8.949,-13.32 -19.984,-13.32 -2.461,0 -4.817,0.297 -7,0.84 0,0 -6.524,-3.707 -6.524,-3.707 0,0 14.805,-8.543 14.805,-8.543 0,0 42.578,24.582 42.578,24.582 3.231,-1.867 6.129,-3.539 8.484,-4.902 -10.605,-17.051 -29.503,-28.41 -51.062,-28.41 -21.531,0 -40.41,11.328 -51.024,28.339 2.438,1.411 5.344,3.086 8.524,4.922 0,0 13.183,-7.609 13.183,-7.609 0,0 8.52,4.937 8.52,4.937 -0.305,0.926 -0.469,1.883 -0.469,2.871 0,7.356 8.946,13.321 19.985,13.321 11.035,0 19.984,-5.965 19.984,-13.321 z"
       style="fill:#000012;fill-rule:evenodd;stroke:none" />
  </g>
</svg>
